<?xml version="1.0" encoding="utf-8"?>
<!-- Generator: Adobe Illustrator 21.0.0, SVG Export Plug-In . SVG Version: 6.00 Build 0)  -->
<svg version="1.1" id="Camada_1" xmlns="http://www.w3.org/2000/svg" xmlns:xlink="http://www.w3.org/1999/xlink" x="0px" y="0px"
	 viewBox="0 0 576 512" style="enable-background:new 0 0 576 512;" xml:space="preserve">
<style type="text/css">
	.st0{fill:#FFFFFF;}
</style>
<path class="st0" d="M296,464h-56V338.8l168.7-168.7c15.5-15.5,4.5-42.1-17.4-42.1H24.7c-22,0-32.9,26.5-17.4,42.1L176,338.8V464
	h-56c-22.1,0-40,17.9-40,40c0,4.4,3.6,8,8,8h240c4.4,0,8-3.6,8-8C336,481.9,318.1,464,296,464z M432,0c-62.6,0-115.4,40.2-135.2,96
	h52.5C366,67.4,396.6,48,432,48c52.9,0,96,43.1,96,96s-43.1,96-96,96c-14,0-27.3-3.2-39.3-8.6l-35.3,35.3
	c21.8,13.3,47.2,21.4,74.6,21.4c79.5,0,144-64.5,144-144S511.5,0,432,0z"/>
</svg>
