<?xml version="1.0" encoding="utf-8"?>
<!-- Generator: Adobe Illustrator 21.0.0, SVG Export Plug-In . SVG Version: 6.00 Build 0)  -->
<svg version="1.1" id="Capa_1" xmlns="http://www.w3.org/2000/svg" xmlns:xlink="http://www.w3.org/1999/xlink" x="0px" y="0px"
	 viewBox="0 0 56.3 56.3" style="enable-background:new 0 0 56.3 56.3;" xml:space="preserve">
<style type="text/css">
	.st0{fill:#FFFFFF;}
</style>
<g>
	<path class="st0" d="M9.5,3.3c0.5,0.4,0.9,0.9,1.2,1.4c-1.1,0.4-2,1-2.8,1.8L7,7.4c-3.4,3.4-3,9.4,0.9,13.3
		c1.8,1.8,4.1,2.8,6.6,2.8c2.5,0,4.9-1,6.6-2.8c1.8-1.8,2.8-4.1,2.8-6.6c0-2.5-1-4.9-2.8-6.6c-2.1-2.1-4.8-3.2-7.5-3.2
		c-0.3,0-0.6,0-1,0.1c-0.4-0.8-1.1-1.7-2-2.5C8.8,0.2,6-0.3,2.6,0.2C2,0.3,1.6,0.8,1.7,1.3c0.1,0.5,0.6,0.9,1.1,0.8
		C5.7,1.7,8,2.1,9.5,3.3z M11.4,8.5c0.9,0.9,2.3,0.9,3.2,0c0.4-0.4,1-0.4,1.4,0c0.4,0.4,0.4,1,0,1.4c-0.8,0.8-1.9,1.2-3,1.2
		s-2.2-0.4-3-1.2c-0.4-0.4-0.4-1,0-1.4C10.4,8.1,11,8.1,11.4,8.5z"/>
	<path class="st0" d="M50.9,24.9c0.1-0.4,0.1-0.8,0.1-1.1c0-2.9-2-5.7-5.8-7.8c-0.1-2-0.7-8.2-4.5-12c-2.4-2.4-5.6-3.5-9.5-3.1
		c-0.3,0-0.6,0.2-0.8,0.6s-0.1,0.7,0,1c0.6,1,1.7,3.5,1.1,4.6c-0.3,0.5-0.9,0.7-2,0.7c-1.8,0-3.6,0.2-5.3,0.5C25.4,10,26,12,26,14.1
		c0,3-1.2,5.9-3.3,8.1s-5,3.3-8.1,3.3c-2.3,0-4.5-0.7-6.4-1.9c0,0.1,0,0.1,0,0.2c0,0.4,0,0.8,0.1,1.1C6,26.8,4.7,29,4.7,31.3
		c0,0.2,0,0.4,0,0.5l0,0C6,30.6,7.5,30,9.3,30c2.7,0,5.2,1.5,7.2,3.1c2.7-1,6.1-0.4,9.1,1.7c2.7-1.5,6.2-1.5,8.9,0
		c3-2.1,6.3-2.8,9-1.7c1.9-1.6,4.5-3.1,7.1-3.1c1.5,0,2.9,0.5,4.1,1.4c0,0,0-0.1,0-0.1C54.6,29,53.3,26.8,50.9,24.9z M16,28.4
		c-0.1,0.4-0.5,0.7-0.9,0.7c-0.1,0-0.2,0-0.3-0.1c-1.1-0.4-2.2-0.9-3.2-1.4c-0.5-0.3-0.7-0.9-0.4-1.4c0.3-0.5,0.9-0.7,1.4-0.4
		c0.9,0.5,1.9,0.9,2.9,1.3C15.9,27.4,16.2,27.9,16,28.4z M29.9,18.1c4.1,0,8.1-0.5,11.3-1.5c0.5-0.2,1.1,0.1,1.2,0.7
		c0.2,0.5-0.1,1.1-0.7,1.2c-3.5,1-7.6,1.6-11.9,1.6c-0.6,0-1-0.4-1-1S29.3,18.1,29.9,18.1z M36.3,31c-2.2,0.3-4.4,0.4-6.6,0.4
		c-2,0-4.1-0.1-6.1-0.4C23,31,22.6,30.5,22.7,30c0.1-0.5,0.6-0.9,1.1-0.9c4,0.5,8.1,0.5,12.2-0.1c0.5-0.1,1,0.3,1.1,0.9
		S36.8,30.9,36.3,31z M47.9,27.6c-1.7,0.9-3.7,1.7-5.9,2.3c-0.1,0-0.2,0-0.3,0c-0.4,0-0.8-0.3-1-0.7c-0.1-0.5,0.2-1.1,0.7-1.2
		c2.1-0.6,3.9-1.3,5.5-2.1c0.5-0.3,1.1-0.1,1.4,0.4C48.5,26.8,48.3,27.4,47.9,27.6z"/>
	<path class="st0" d="M50.5,32c-2.6,0-5.2,2-6.9,3.5c-0.9-0.6-1.9-0.9-3-0.9c-2,0-4.2,1-6.2,2.7c-1.3-1-2.9-1.5-4.6-1.5
		c-1.7,0-3.3,0.5-4.6,1.5c-2-1.7-4.2-2.7-6.2-2.7c-1.1,0-2.1,0.3-3,0.9C14.5,34,11.9,32,9.3,32c-1.2,0-2.3,0.4-3.1,1.3l-0.5,0.5
		l4.8,11.7l0,0.1c3.2,5.9,5.9,7.3,11.7,9.6c1.9,0.7,4.7,1.2,7.7,1.2c3,0,5.8-0.4,7.7-1.2c5.8-2.3,8.5-3.7,11.6-9.5l4.9-11.9
		l-0.5-0.5C52.8,32.4,51.7,32,50.5,32z M20.2,49c-0.1,0.1-0.3,0.1-0.4,0.1c-0.4,0-0.7-0.2-0.9-0.6l-2.8-5.9c-0.2-0.5,0-1.1,0.5-1.3
		c0.5-0.2,1.1,0,1.3,0.5l2.8,5.9C20.9,48.2,20.7,48.8,20.2,49z M26.4,51.2c-0.1,0-0.1,0-0.2,0c-0.5,0-0.9-0.4-1-0.8l-0.9-5.9
		c-0.1-0.5,0.3-1.1,0.8-1.1c0.5-0.1,1.1,0.3,1.1,0.8l0.9,5.9C27.3,50.6,26.9,51.1,26.4,51.2z M34.6,50.3c-0.1,0.5-0.5,0.8-1,0.8
		c-0.1,0-0.1,0-0.2,0c-0.5-0.1-0.9-0.6-0.8-1.1l0.9-5.9c0.1-0.5,0.6-0.9,1.1-0.8c0.5,0.1,0.9,0.6,0.8,1.1L34.6,50.3z M43.7,42.6
		l-2.8,5.9c-0.2,0.4-0.5,0.6-0.9,0.6c-0.1,0-0.3,0-0.4-0.1c-0.5-0.2-0.7-0.8-0.5-1.3l2.8-5.9c0.2-0.5,0.8-0.7,1.3-0.5
		C43.7,41.5,43.9,42.1,43.7,42.6z"/>
</g>
</svg>
